<svg width="1280" height="320" viewBox="0 0 1280 320" fill="none" xmlns="http://www.w3.org/2000/svg">
  <defs>
    <linearGradient id="bg" x1="0" y1="0" x2="1280" y2="320" gradientUnits="userSpaceOnUse">
      <stop stop-color="#0D1117"/>
      <stop offset="1" stop-color="#111827"/>
    </linearGradient>
    <linearGradient id="accent" x1="166" y1="84" x2="870" y2="285" gradientUnits="userSpaceOnUse">
      <stop stop-color="#58A6FF"/>
      <stop offset="1" stop-color="#2EA043"/>
    </linearGradient>
    <filter id="shadow" x="0" y="0" width="1280" height="320" filterUnits="userSpaceOnUse" color-interpolation-filters="sRGB">
      <feDropShadow dx="0" dy="10" stdDeviation="24" flood-color="#000000" flood-opacity="0.35"/>
    </filter>
  </defs>

  <rect width="1280" height="320" rx="28" fill="url(#bg)"/>

  <g opacity="0.13">
    <path d="M0 48H1280" stroke="#58A6FF"/>
    <path d="M0 96H1280" stroke="#58A6FF"/>
    <path d="M0 144H1280" stroke="#58A6FF"/>
    <path d="M0 192H1280" stroke="#58A6FF"/>
    <path d="M0 240H1280" stroke="#58A6FF"/>
    <path d="M0 288H1280" stroke="#58A6FF"/>
    <path d="M96 0V320" stroke="#2EA043"/>
    <path d="M256 0V320" stroke="#2EA043"/>
    <path d="M416 0V320" stroke="#2EA043"/>
    <path d="M576 0V320" stroke="#2EA043"/>
    <path d="M736 0V320" stroke="#2EA043"/>
    <path d="M896 0V320" stroke="#2EA043"/>
    <path d="M1056 0V320" stroke="#2EA043"/>
    <path d="M1216 0V320" stroke="#2EA043"/>
  </g>

  <g filter="url(#shadow)">
    <rect x="58" y="58" width="1164" height="204" rx="22" fill="#0B1220" stroke="#1F2937"/>
  </g>

  <circle cx="116" cy="102" r="6" fill="#FF5F56"/>
  <circle cx="138" cy="102" r="6" fill="#FFBD2E"/>
  <circle cx="160" cy="102" r="6" fill="#27C93F"/>

  <text x="94" y="145" fill="#E6EDF3" font-family="'DejaVu Sans Mono', 'Consolas', monospace" font-size="42" font-weight="700">
    Igor Zaitsev
  </text>

  <text x="94" y="186" fill="#8B949E" font-family="'DejaVu Sans Mono', 'Consolas', monospace" font-size="22">
    Infrastructure &amp; Systems Engineer
  </text>

  <text x="94" y="222" fill="url(#accent)" font-family="'DejaVu Sans Mono', 'Consolas', monospace" font-size="22" font-weight="700">
    Linux · DPDK / DPI · Ansible · Networking · Troubleshooting
  </text>

  <text x="790" y="145" fill="#58A6FF" font-family="'DejaVu Sans Mono', 'Consolas', monospace" font-size="20">
    $ focus --now
  </text>
  <text x="790" y="178" fill="#E6EDF3" font-family="'DejaVu Sans Mono', 'Consolas', monospace" font-size="18">
    operating stable infrastructure
  </text>
  <text x="790" y="206" fill="#E6EDF3" font-family="'DejaVu Sans Mono', 'Consolas', monospace" font-size="18">
    debugging hard incidents
  </text>
  <text x="790" y="234" fill="#E6EDF3" font-family="'DejaVu Sans Mono', 'Consolas', monospace" font-size="18">
    automating routine ops
  </text>
</svg>
